<svg xmlns="http://www.w3.org/2000/svg" viewBox="0 0 1200 900" fill="none">
  <rect width="1200" height="900" rx="48" fill="#07101c"/>
  <circle cx="200" cy="190" r="140" fill="#25D366" fill-opacity=".18"/>
  <circle cx="980" cy="180" r="140" fill="#5be7ff" fill-opacity=".14"/>
  <circle cx="970" cy="710" r="180" fill="#f97316" fill-opacity=".16"/>
  <rect x="120" y="130" width="960" height="640" rx="40" fill="#0f172a" stroke="#223047" stroke-width="2"/>
  <rect x="220" y="190" width="190" height="500" rx="34" fill="#111827" stroke="#334155"/>
  <rect x="505" y="190" width="190" height="500" rx="34" fill="#111827" stroke="#334155"/>
  <rect x="790" y="190" width="190" height="500" rx="34" fill="#111827" stroke="#334155"/>
  <circle cx="315" cy="280" r="52" fill="#25D366" fill-opacity=".22" stroke="#25D366" stroke-opacity=".5"/>
  <circle cx="600" cy="280" r="52" fill="#5be7ff" fill-opacity=".18" stroke="#5be7ff" stroke-opacity=".5"/>
  <circle cx="885" cy="280" r="52" fill="#f97316" fill-opacity=".18" stroke="#f97316" stroke-opacity=".5"/>
  <rect x="255" y="380" width="120" height="16" rx="8" fill="#5be7ff"/>
  <rect x="540" y="380" width="120" height="16" rx="8" fill="#8b5cf6"/>
  <rect x="825" y="380" width="120" height="16" rx="8" fill="#ec4899"/>
  <rect x="255" y="420" width="100" height="12" rx="6" fill="#475569"/>
  <rect x="540" y="420" width="100" height="12" rx="6" fill="#475569"/>
  <rect x="825" y="420" width="100" height="12" rx="6" fill="#475569"/>
  <rect x="255" y="470" width="120" height="70" rx="18" fill="#13233f"/>
  <rect x="540" y="470" width="120" height="70" rx="18" fill="#1d1740"/>
  <rect x="825" y="470" width="120" height="70" rx="18" fill="#3d1a3f"/>
  <path d="M410 314h82M695 314h82" stroke="#94a3b8" stroke-width="3" stroke-linecap="round" stroke-dasharray="8 8"/>
</svg>
