<svg xmlns="http://www.w3.org/2000/svg" viewBox="0 0 1200 900" fill="none">
  <rect width="1200" height="900" rx="48" fill="#08111f"/>
  <circle cx="180" cy="180" r="130" fill="#5be7ff" fill-opacity=".18"/>
  <circle cx="1000" cy="150" r="150" fill="#22c55e" fill-opacity=".16"/>
  <circle cx="960" cy="720" r="210" fill="#8b5cf6" fill-opacity=".14"/>
  <rect x="120" y="140" width="960" height="620" rx="38" fill="#0f172a" stroke="#223047" stroke-width="2"/>
  <rect x="176" y="196" width="322" height="508" rx="30" fill="#111827" stroke="#334155"/>
  <rect x="522" y="196" width="560" height="236" rx="30" fill="#111827" stroke="#334155"/>
  <rect x="522" y="458" width="560" height="246" rx="30" fill="#111827" stroke="#334155"/>
  <rect x="214" y="236" width="180" height="18" rx="9" fill="#5be7ff"/>
  <rect x="214" y="272" width="228" height="18" rx="9" fill="#334155"/>
  <rect x="214" y="318" width="244" height="90" rx="20" fill="#13233f"/>
  <rect x="214" y="428" width="244" height="126" rx="20" fill="#1d2740"/>
  <rect x="214" y="574" width="244" height="92" rx="20" fill="#113045"/>
  <rect x="560" y="236" width="182" height="18" rx="9" fill="#22c55e"/>
  <rect x="560" y="274" width="220" height="12" rx="6" fill="#475569"/>
  <rect x="560" y="316" width="480" height="60" rx="16" fill="#13233f"/>
  <rect x="560" y="392" width="320" height="16" rx="8" fill="#334155"/>
  <rect x="560" y="494" width="180" height="18" rx="9" fill="#f97316"/>
  <rect x="560" y="532" width="420" height="12" rx="6" fill="#475569"/>
  <rect x="560" y="566" width="480" height="110" rx="22" fill="#1c2032"/>
  <circle cx="862" cy="568" r="46" fill="#ec4899" fill-opacity=".18" stroke="#ec4899" stroke-opacity=".45"/>
  <path d="M180 180l84 0M972 180l-76 0" stroke="#5be7ff" stroke-opacity=".5" stroke-width="4" stroke-linecap="round" stroke-dasharray="10 10"/>
</svg>
