<svg xmlns="http://www.w3.org/2000/svg" viewBox="0 0 1200 900" fill="none">
  <rect width="1200" height="900" rx="48" fill="#09111f"/>
  <circle cx="190" cy="180" r="130" fill="#22c55e" fill-opacity=".16"/>
  <circle cx="980" cy="170" r="150" fill="#f97316" fill-opacity=".16"/>
  <circle cx="940" cy="720" r="200" fill="#5be7ff" fill-opacity=".14"/>
  <rect x="140" y="150" width="920" height="600" rx="38" fill="#0f172a" stroke="#223047" stroke-width="2"/>
  <rect x="190" y="210" width="250" height="440" rx="28" fill="#111827" stroke="#334155"/>
  <rect x="475" y="210" width="250" height="440" rx="28" fill="#111827" stroke="#334155"/>
  <rect x="760" y="210" width="250" height="440" rx="28" fill="#111827" stroke="#334155"/>
  <rect x="230" y="260" width="150" height="18" rx="9" fill="#5be7ff"/>
  <rect x="230" y="304" width="100" height="12" rx="6" fill="#475569"/>
  <rect x="230" y="352" width="170" height="90" rx="18" fill="#13233f"/>
  <rect x="230" y="460" width="170" height="126" rx="18" fill="#1c2032"/>
  <rect x="515" y="260" width="150" height="18" rx="9" fill="#22c55e"/>
  <rect x="515" y="304" width="110" height="12" rx="6" fill="#475569"/>
  <rect x="515" y="352" width="170" height="90" rx="18" fill="#13233f"/>
  <rect x="515" y="460" width="170" height="126" rx="18" fill="#3d1a3f"/>
  <rect x="800" y="260" width="150" height="18" rx="9" fill="#f97316"/>
  <rect x="800" y="304" width="110" height="12" rx="6" fill="#475569"/>
  <rect x="800" y="352" width="170" height="90" rx="18" fill="#13233f"/>
  <rect x="800" y="460" width="170" height="126" rx="18" fill="#1d1740"/>
</svg>
