<svg xmlns="http://www.w3.org/2000/svg" viewBox="0 0 1200 900" fill="none">
  <rect width="1200" height="900" rx="48" fill="#0b1220"/>
  <circle cx="220" cy="180" r="120" fill="#5be7ff" fill-opacity=".18"/>
  <circle cx="960" cy="180" r="160" fill="#8b5cf6" fill-opacity=".18"/>
  <circle cx="980" cy="700" r="180" fill="#ec4899" fill-opacity=".14"/>
  <rect x="150" y="150" width="900" height="600" rx="36" fill="#0f172a" stroke="#243047" stroke-width="2"/>
  <rect x="190" y="196" width="240" height="510" rx="28" fill="#111827" stroke="#334155"/>
  <rect x="470" y="196" width="240" height="510" rx="28" fill="#111827" stroke="#334155"/>
  <rect x="750" y="196" width="240" height="510" rx="28" fill="#111827" stroke="#334155"/>
  <rect x="216" y="234" width="188" height="18" rx="9" fill="#5be7ff"/>
  <rect x="216" y="270" width="130" height="12" rx="6" fill="#475569"/>
  <rect x="216" y="308" width="188" height="92" rx="18" fill="#13233f"/>
  <rect x="216" y="418" width="188" height="92" rx="18" fill="#1f2937"/>
  <rect x="216" y="528" width="188" height="120" rx="18" fill="#0f3d3e"/>
  <rect x="496" y="234" width="188" height="18" rx="9" fill="#22c55e"/>
  <rect x="496" y="270" width="130" height="12" rx="6" fill="#475569"/>
  <rect x="496" y="308" width="188" height="92" rx="18" fill="#19263d"/>
  <rect x="496" y="418" width="188" height="92" rx="18" fill="#1d1740"/>
  <rect x="496" y="528" width="188" height="120" rx="18" fill="#3d1a3f"/>
  <rect x="776" y="234" width="188" height="18" rx="9" fill="#f97316"/>
  <rect x="776" y="270" width="130" height="12" rx="6" fill="#475569"/>
  <rect x="776" y="308" width="188" height="92" rx="18" fill="#14213d"/>
  <rect x="776" y="418" width="188" height="92" rx="18" fill="#1c2032"/>
  <rect x="776" y="528" width="188" height="120" rx="18" fill="#1b2348"/>
  <circle cx="470" cy="470" r="66" fill="#5be7ff" fill-opacity=".16" stroke="#5be7ff" stroke-opacity=".4"/>
  <circle cx="750" cy="470" r="66" fill="#ec4899" fill-opacity=".16" stroke="#ec4899" stroke-opacity=".4"/>
  <path d="M392 470h56M752 470h-56" stroke="#94a3b8" stroke-width="2" stroke-linecap="round" stroke-dasharray="6 6"/>
</svg>
